<svg width="691" height="801" viewBox="0 0 691 801" fill="none" xmlns="http://www.w3.org/2000/svg">
<path d="M70.4844 440.552L340.354 34.2422L616.194 399.572C584.594 370.752 475.314 283.722 345.014 290.172C191.064 297.802 93.3144 417.662 70.4844 440.552Z" fill="#55001F"/>
<path d="M30.4238 634.951C43.1338 463.991 164.324 329.241 340.234 324.871C449.454 321.281 571.714 360.981 632.234 458.331C677.864 534.981 663.004 637.641 606.964 704.591C551.414 771.701 456.254 792.181 374.724 768.861L362.524 765.421C361.474 727.741 360.794 677.541 360.514 639.351C360.394 601.041 360.464 562.731 361.504 524.331C368.264 562.141 374.054 600.021 379.654 637.911C384.424 671.221 391.054 718.731 395.024 751.701L382.604 737.001C449.654 748.201 526.014 728.991 567.814 672.931C607.034 621.901 616.924 541.401 583.674 487.361C508.114 373.491 321.164 347.221 202.834 404.451C112.664 448.881 57.4738 539.571 30.4338 634.941L30.4238 634.951Z" fill="#55001F"/>
</svg>
